<?xml version="1.0" encoding="UTF-8" standalone="no"?>
<!-- Generator: Adobe Illustrator 19.0.0, SVG Export Plug-In . SVG Version: 6.00 Build 0)  -->

<svg
   xmlns:dc="http://purl.org/dc/elements/1.1/"
   xmlns:cc="http://creativecommons.org/ns#"
   xmlns:rdf="http://www.w3.org/1999/02/22-rdf-syntax-ns#"
   xmlns:svg="http://www.w3.org/2000/svg"
   xmlns="http://www.w3.org/2000/svg"
   xmlns:sodipodi="http://sodipodi.sourceforge.net/DTD/sodipodi-0.dtd"
   xmlns:inkscape="http://www.inkscape.org/namespaces/inkscape"
   version="1.1"
   id="Layer_1"
   x="0px"
   y="0px"
   viewBox="0 0 16 16.000002"
   xml:space="preserve"
   inkscape:version="0.91 r13725"
   sodipodi:docname="favicon.svg"
   width="16"
   height="16.000002"
   inkscape:export-filename="/Volumes/DaStorage/Documents/PostDoc/Projects/FLMPlusPlus/Code/FLM_prev/img/favicon.png"
   inkscape:export-xdpi="90"
   inkscape:export-ydpi="90"><metadata
     id="metadata49"><rdf:RDF><cc:Work
         rdf:about=""><dc:format>image/svg+xml</dc:format><dc:type
           rdf:resource="http://purl.org/dc/dcmitype/StillImage" /><dc:title></dc:title></cc:Work></rdf:RDF></metadata><defs
     id="defs47" /><sodipodi:namedview
     pagecolor="#ffffff"
     bordercolor="#666666"
     borderopacity="1"
     objecttolerance="10"
     gridtolerance="10"
     guidetolerance="10"
     inkscape:pageopacity="0"
     inkscape:pageshadow="2"
     inkscape:window-width="1280"
     inkscape:window-height="731"
     id="namedview45"
     showgrid="false"
     inkscape:zoom="11.313708"
     inkscape:cx="-0.86728869"
     inkscape:cy="0.90441811"
     inkscape:window-x="0"
     inkscape:window-y="0"
     inkscape:window-maximized="1"
     inkscape:current-layer="Layer_1"
     inkscape:snap-center="true"
     inkscape:snap-object-midpoints="true"
     fit-margin-top="0"
     fit-margin-left="0"
     fit-margin-right="0"
     fit-margin-bottom="0" /><g
     id="g15"
     transform="translate(5013.897,-783.47815)" /><g
     id="g17"
     transform="translate(5013.897,-783.47815)" /><g
     id="g19"
     transform="translate(5013.897,-783.47815)" /><g
     id="g21"
     transform="translate(5013.897,-783.47815)" /><g
     id="g23"
     transform="translate(5013.897,-783.47815)" /><g
     id="g25"
     transform="translate(5013.897,-783.47815)" /><g
     id="g27"
     transform="translate(5013.897,-783.47815)" /><g
     id="g29"
     transform="translate(5013.897,-783.47815)" /><g
     id="g31"
     transform="translate(5013.897,-783.47815)" /><g
     id="g33"
     transform="translate(5013.897,-783.47815)" /><g
     id="g35"
     transform="translate(5013.897,-783.47815)" /><g
     id="g37"
     transform="translate(5013.897,-783.47815)" /><g
     id="g39"
     transform="translate(5013.897,-783.47815)" /><g
     id="g41"
     transform="translate(5013.897,-783.47815)" /><g
     id="g43"
     transform="translate(5013.897,-783.47815)" /><g
     id="g4689"
     transform="translate(5545.8337,-696.83453)" /><g
     id="g4691"
     transform="translate(5545.8337,-696.83453)" /><g
     id="g4693"
     transform="translate(5545.8337,-696.83453)" /><g
     id="g4695"
     transform="translate(5545.8337,-696.83453)" /><g
     id="g4697"
     transform="translate(5545.8337,-696.83453)" /><g
     id="g4699"
     transform="translate(5545.8337,-696.83453)" /><g
     id="g4701"
     transform="translate(5545.8337,-696.83453)" /><g
     id="g4703"
     transform="translate(5545.8337,-696.83453)" /><g
     id="g4705"
     transform="translate(5545.8337,-696.83453)" /><g
     id="g4707"
     transform="translate(5545.8337,-696.83453)" /><g
     id="g4709"
     transform="translate(5545.8337,-696.83453)" /><g
     id="g4711"
     transform="translate(5545.8337,-696.83453)" /><g
     id="g4713"
     transform="translate(5545.8337,-696.83453)" /><g
     id="g4715"
     transform="translate(5545.8337,-696.83453)" /><g
     id="g4717"
     transform="translate(5545.8337,-696.83453)" /><g
     id="g5563"
     transform="matrix(0.91892008,-0.20472688,0.25588791,1.1485573,3043.8472,-67.242527)" /><g
     id="g5565"
     transform="matrix(0.91892008,-0.20472688,0.25588791,1.1485573,3043.8472,-67.242527)" /><g
     id="g5567"
     transform="matrix(0.91892008,-0.20472688,0.25588791,1.1485573,3043.8472,-67.242527)" /><g
     id="g5569"
     transform="matrix(0.91892008,-0.20472688,0.25588791,1.1485573,3043.8472,-67.242527)" /><g
     id="g5571"
     transform="matrix(0.91892008,-0.20472688,0.25588791,1.1485573,3043.8472,-67.242527)" /><g
     id="g5573"
     transform="matrix(0.91892008,-0.20472688,0.25588791,1.1485573,3043.8472,-67.242527)" /><g
     id="g5575"
     transform="matrix(0.91892008,-0.20472688,0.25588791,1.1485573,3043.8472,-67.242527)" /><g
     id="g5577"
     transform="matrix(0.91892008,-0.20472688,0.25588791,1.1485573,3043.8472,-67.242527)" /><g
     id="g5579"
     transform="matrix(0.91892008,-0.20472688,0.25588791,1.1485573,3043.8472,-67.242527)" /><g
     id="g5581"
     transform="matrix(0.91892008,-0.20472688,0.25588791,1.1485573,3043.8472,-67.242527)" /><g
     id="g5583"
     transform="matrix(0.91892008,-0.20472688,0.25588791,1.1485573,3043.8472,-67.242527)" /><g
     id="g5585"
     transform="matrix(0.91892008,-0.20472688,0.25588791,1.1485573,3043.8472,-67.242527)" /><g
     id="g5587"
     transform="matrix(0.91892008,-0.20472688,0.25588791,1.1485573,3043.8472,-67.242527)" /><g
     id="g5589"
     transform="matrix(0.91892008,-0.20472688,0.25588791,1.1485573,3043.8472,-67.242527)" /><g
     id="g5591"
     transform="matrix(0.91892008,-0.20472688,0.25588791,1.1485573,3043.8472,-67.242527)" /><g
     style="stroke:#000000;stroke-opacity:1"
     id="g5597"
     transform="matrix(-0.40654231,0.71466895,1.0095654,0.60252032,3787.9675,-371.93938)" /><g
     style="stroke:#000000;stroke-opacity:1"
     id="g5599"
     transform="matrix(-0.40654231,0.71466895,1.0095654,0.60252032,3787.9675,-371.93938)" /><g
     style="stroke:#000000;stroke-opacity:1"
     id="g5601"
     transform="matrix(-0.40654231,0.71466895,1.0095654,0.60252032,3787.9675,-371.93938)" /><g
     style="stroke:#000000;stroke-opacity:1"
     id="g5603"
     transform="matrix(-0.40654231,0.71466895,1.0095654,0.60252032,3787.9675,-371.93938)" /><g
     style="stroke:#000000;stroke-opacity:1"
     id="g5605"
     transform="matrix(-0.40654231,0.71466895,1.0095654,0.60252032,3787.9675,-371.93938)" /><g
     style="stroke:#000000;stroke-opacity:1"
     id="g5607"
     transform="matrix(-0.40654231,0.71466895,1.0095654,0.60252032,3787.9675,-371.93938)" /><g
     style="stroke:#000000;stroke-opacity:1"
     id="g5609"
     transform="matrix(-0.40654231,0.71466895,1.0095654,0.60252032,3787.9675,-371.93938)" /><g
     style="stroke:#000000;stroke-opacity:1"
     id="g5611"
     transform="matrix(-0.40654231,0.71466895,1.0095654,0.60252032,3787.9675,-371.93938)" /><g
     style="stroke:#000000;stroke-opacity:1"
     id="g5613"
     transform="matrix(-0.40654231,0.71466895,1.0095654,0.60252032,3787.9675,-371.93938)" /><g
     style="stroke:#000000;stroke-opacity:1"
     id="g5615"
     transform="matrix(-0.40654231,0.71466895,1.0095654,0.60252032,3787.9675,-371.93938)" /><g
     style="stroke:#000000;stroke-opacity:1"
     id="g5617"
     transform="matrix(-0.40654231,0.71466895,1.0095654,0.60252032,3787.9675,-371.93938)" /><g
     style="stroke:#000000;stroke-opacity:1"
     id="g5619"
     transform="matrix(-0.40654231,0.71466895,1.0095654,0.60252032,3787.9675,-371.93938)" /><g
     style="stroke:#000000;stroke-opacity:1"
     id="g5621"
     transform="matrix(-0.40654231,0.71466895,1.0095654,0.60252032,3787.9675,-371.93938)" /><g
     style="stroke:#000000;stroke-opacity:1"
     id="g5623"
     transform="matrix(-0.40654231,0.71466895,1.0095654,0.60252032,3787.9675,-371.93938)" /><g
     style="stroke:#000000;stroke-opacity:1"
     id="g5625"
     transform="matrix(-0.40654231,0.71466895,1.0095654,0.60252032,3787.9675,-371.93938)" /><g
     id="g5799"
     transform="matrix(0.02777098,0,0,0.02777098,2.1307659,0.17479089)"><g
       transform="matrix(1.0223369,0,0,1.0223369,1291.0722,-423.48845)"
       id="g6044"><g
         id="g5501"
         style="stroke:#000000;stroke-opacity:1"
         transform="matrix(-0.40654231,0.71466895,1.0095654,0.60252032,-1225.9295,411.53877)"><path
           id="path5503"
           d="m 449.75465,202.6762 c 10.593,-20.303 0,-45.021 -24.717,-48.552 -11.476,-1.766 -28.248,7.945 -39.724,25.6 l -23.58465,58.6648 8.15961,-94.05175 c 4.414,-15.007 -0.883,-30.897 -14.124,-38.841 -5.297,-4.414 -11.476,-6.179001 -18.538,-6.179001 -19.421,0 -30.897,21.186001 -35.31,35.310001 L 291.109,211.907 276.82268,94.927962 c -2.2518,-18.43816 -14.124,-34.428 -32.662,-35.31 -20.303,-0.883 -40.47727,11.577877 -37.959,35.31 L 220.488,229.562 176.349,73.313 c -7.062,-25.6 -15.89,-37.959 -35.31,-37.959 -15.007,0 -28.248,8.828 -33.545,22.952 -1.766,6.179 -1.766,12.359 0,19.421 l 42.372,187.145 -15.89,-23.835 C 116.321,210.14 73.948,196.016 45.7,206.609 c -4.414,0.883 -7.062,3.531 -10.593,5.297 -10.593,7.062 -8.828,15.007 -8.828,17.655 0,2.648 50.317,53.848 79.448,105.931 0,0 25.6,42.372 52.966,70.621 l 0,26.483 c 65.55838,51.26269 151.95084,43.94762 245.407,16.772 1.766,-7.945 5.297,-19.421 10.593,-25.6 9.71,-11.476 22.952,-43.255 15.007,-87.393 -2.648,-15.007 -1.766,-38.841 1.766,-52.966 l 0,-0.883 z"
           style="fill:#fdc794;stroke:#000000;stroke-opacity:1"
           inkscape:connector-curvature="0"
           sodipodi:nodetypes="ccccccsccscsccsccccccsccccccccc" /><g
           id="g5505"
           style="stroke:#000000;stroke-opacity:1" /><g
           id="g5507"
           style="stroke:#000000;stroke-opacity:1" /><g
           id="g5509"
           style="stroke:#000000;stroke-opacity:1" /><g
           id="g5511"
           style="stroke:#000000;stroke-opacity:1" /><g
           id="g5513"
           style="stroke:#000000;stroke-opacity:1" /><g
           id="g5515"
           style="stroke:#000000;stroke-opacity:1" /><g
           id="g5517"
           style="stroke:#000000;stroke-opacity:1" /><g
           id="g5519"
           style="stroke:#000000;stroke-opacity:1" /><g
           id="g5521"
           style="stroke:#000000;stroke-opacity:1" /><g
           id="g5523"
           style="stroke:#000000;stroke-opacity:1" /><g
           id="g5525"
           style="stroke:#000000;stroke-opacity:1" /><g
           id="g5527"
           style="stroke:#000000;stroke-opacity:1" /><g
           id="g5529"
           style="stroke:#000000;stroke-opacity:1" /><g
           id="g5531"
           style="stroke:#000000;stroke-opacity:1" /><g
           id="g5533"
           style="stroke:#000000;stroke-opacity:1" /></g><g
         id="g5535"
         transform="translate(-1366.5939,426.27495)"><path
           inkscape:connector-curvature="0"
           style="fill:#b2b1aa;stroke:#000000;stroke-opacity:1"
           d="m 368.42979,15.79426 0,14.51 -28.27,0 -199.73,0 0,-14.51 c 0,-18.499996 14.99,-33.489997 33.49,-33.489997 l 161.02,0 c 18.49,0 33.49,14.990001 33.49,33.489997 z"
           id="path5537" /><polygon
           style="fill:#1a1a1a;stroke:#000000;stroke-opacity:1"
           points="261.75,138.5 261.75,179 261.75,322 68.45,322 233.48,49.22 233.48,48 261.75,48 "
           id="polygon5539"
           transform="matrix(1,0,0,1.4513564,106.67979,-50.01442)" /><polygon
           style="fill:#4d4d4d;stroke:#000000;stroke-opacity:1"
           points="33.75,322 33.75,48 233.48,48 233.48,49.22 68.45,322 "
           id="polygon5541"
           transform="matrix(1.0614507,0,0,1.4513564,104.60583,-50.01442)" /><path
           inkscape:connector-curvature="0"
           style="fill:#b2b1aa;stroke:#000000;stroke-opacity:1"
           d="m 175.12979,404.30426 193.3,0 0,16.51 c 0,18.5 -15,33.49 -33.49,33.49 l -9.32,0 -151.7,0 c -18.5,0 -33.49,-14.99 -33.49,-33.49 l 0,-16.51 34.7,0 z"
           id="path5543" /><circle
           style="fill:#969489"
           cx="254.42981"
           cy="429.30426"
           r="14.999"
           id="circle5545" /></g><path
         sodipodi:nodetypes="ccccsc"
         inkscape:connector-curvature="0"
         style="fill:#fdc794;stroke:#000000;stroke-width:0.98308444;stroke-opacity:1"
         d="m -1019.4508,678.23411 -17.603,-25.71716 c -24.015,-31.23355 -21.0477,-70.02622 1.1306,-83.83169 2.6859,-2.62252 6.4358,-2.91949 9.6542,-4.37894 11.436,-3.31549 18.7395,2.73293 21.4128,4.3284 2.6733,1.59548 33.90711,68.40451 74.64532,120.6046"
         id="path5595" /><g
         id="g5551"
         transform="matrix(-0.11761196,-0.9782968,1.2227722,-0.14700305,-1106.7446,841.69602)"><path
           inkscape:connector-curvature="0"
           style="fill:#71c386"
           d="m 221.359,43.39 c -5.207,0 -8.678,-3.471 -8.678,-8.678 l 0,-26.034 c 0,-5.207 3.471,-8.678 8.678,-8.678 5.207,0 8.678,3.471 8.678,8.678 l 0,26.034 c 0,5.207 -3.471,8.678 -8.678,8.678"
           id="path5553" /><path
           inkscape:connector-curvature="0"
           style="fill:#71c386"
           d="m 152.803,104.136 -26.034,0 c -5.207,0 -8.678,-3.471 -8.678,-8.678 0,-5.207 3.471,-8.678 8.678,-8.678 l 26.034,0 c 5.207,0 8.678,3.471 8.678,8.678 0,5.206 -4.339,8.678 -8.678,8.678"
           id="path5555" /><path
           inkscape:connector-curvature="0"
           style="fill:#71c386"
           d="m 308.139,104.136 -26.034,0 c -5.207,0 -8.678,-3.471 -8.678,-8.678 0,-5.207 3.471,-8.678 8.678,-8.678 l 26.034,0 c 5.207,0 8.678,3.471 8.678,8.678 0,5.206 -4.339,8.678 -8.678,8.678"
           id="path5557" /><path
           inkscape:connector-curvature="0"
           style="fill:#71c386"
           d="m 264.749,60.746 c -2.603,0 -4.339,-0.868 -6.075,-2.603 -3.471,-3.471 -3.471,-8.678 0,-12.149 L 276.03,28.638 c 3.471,-3.471 8.678,-3.471 12.149,0 3.471,3.471 3.471,8.678 0,12.149 l -17.356,17.356 c -1.735,1.735 -3.471,2.603 -6.074,2.603"
           id="path5559" /><path
           inkscape:connector-curvature="0"
           style="fill:#71c386"
           d="m 170.159,60.746 c -2.603,0 -4.339,-0.868 -6.075,-2.603 L 146.728,40.787 c -3.471,-3.471 -3.471,-8.678 0,-12.149 3.471,-3.471 8.678,-3.471 12.149,0 l 17.356,17.356 c 3.471,3.471 3.471,8.678 0,12.149 -1.735,1.735 -4.338,2.603 -6.074,2.603"
           id="path5561" /></g></g></g></svg>