<?xml version="1.0" encoding="UTF-8" standalone="no"?>
<!-- Generator: Adobe Illustrator 19.0.0, SVG Export Plug-In . SVG Version: 6.00 Build 0)  -->

<svg
   xmlns:dc="http://purl.org/dc/elements/1.1/"
   xmlns:cc="http://creativecommons.org/ns#"
   xmlns:rdf="http://www.w3.org/1999/02/22-rdf-syntax-ns#"
   xmlns:svg="http://www.w3.org/2000/svg"
   xmlns="http://www.w3.org/2000/svg"
   xmlns:sodipodi="http://sodipodi.sourceforge.net/DTD/sodipodi-0.dtd"
   xmlns:inkscape="http://www.inkscape.org/namespaces/inkscape"
   version="1.1"
   id="Layer_1"
   x="0px"
   y="0px"
   viewBox="0 0 135 110"
   xml:space="preserve"
   inkscape:version="0.91 r13725"
   sodipodi:docname="grip21.svg"
   width="135"
   height="110"><metadata
     id="metadata49"><rdf:RDF><cc:Work
         rdf:about=""><dc:format>image/svg+xml</dc:format><dc:type
           rdf:resource="http://purl.org/dc/dcmitype/StillImage" /><dc:title></dc:title></cc:Work></rdf:RDF></metadata><defs
     id="defs47" /><sodipodi:namedview
     pagecolor="#ffffff"
     bordercolor="#666666"
     borderopacity="1"
     objecttolerance="10"
     gridtolerance="10"
     guidetolerance="10"
     inkscape:pageopacity="0"
     inkscape:pageshadow="2"
     inkscape:window-width="1280"
     inkscape:window-height="731"
     id="namedview45"
     showgrid="false"
     inkscape:zoom="1.9759125"
     inkscape:cx="-9.900609"
     inkscape:cy="37.131157"
     inkscape:window-x="0"
     inkscape:window-y="0"
     inkscape:window-maximized="1"
     inkscape:current-layer="Layer_1"
     inkscape:snap-center="true"
     inkscape:snap-object-midpoints="true"
     fit-margin-top="0"
     fit-margin-left="0"
     fit-margin-right="0"
     fit-margin-bottom="0" /><g
     id="g15"
     transform="translate(2835.166,-724.11973)" /><g
     id="g17"
     transform="translate(2835.166,-724.11973)" /><g
     id="g19"
     transform="translate(2835.166,-724.11973)" /><g
     id="g21"
     transform="translate(2835.166,-724.11973)" /><g
     id="g23"
     transform="translate(2835.166,-724.11973)" /><g
     id="g25"
     transform="translate(2835.166,-724.11973)" /><g
     id="g27"
     transform="translate(2835.166,-724.11973)" /><g
     id="g29"
     transform="translate(2835.166,-724.11973)" /><g
     id="g31"
     transform="translate(2835.166,-724.11973)" /><g
     id="g33"
     transform="translate(2835.166,-724.11973)" /><g
     id="g35"
     transform="translate(2835.166,-724.11973)" /><g
     id="g37"
     transform="translate(2835.166,-724.11973)" /><g
     id="g39"
     transform="translate(2835.166,-724.11973)" /><g
     id="g41"
     transform="translate(2835.166,-724.11973)" /><g
     id="g43"
     transform="translate(2835.166,-724.11973)" /><g
     id="g4689"
     transform="translate(3367.1027,-637.47611)" /><g
     id="g4691"
     transform="translate(3367.1027,-637.47611)" /><g
     id="g4693"
     transform="translate(3367.1027,-637.47611)" /><g
     id="g4695"
     transform="translate(3367.1027,-637.47611)" /><g
     id="g4697"
     transform="translate(3367.1027,-637.47611)" /><g
     id="g4699"
     transform="translate(3367.1027,-637.47611)" /><g
     id="g4701"
     transform="translate(3367.1027,-637.47611)" /><g
     id="g4703"
     transform="translate(3367.1027,-637.47611)" /><g
     id="g4705"
     transform="translate(3367.1027,-637.47611)" /><g
     id="g4707"
     transform="translate(3367.1027,-637.47611)" /><g
     id="g4709"
     transform="translate(3367.1027,-637.47611)" /><g
     id="g4711"
     transform="translate(3367.1027,-637.47611)" /><g
     id="g4713"
     transform="translate(3367.1027,-637.47611)" /><g
     id="g4715"
     transform="translate(3367.1027,-637.47611)" /><g
     id="g4717"
     transform="translate(3367.1027,-637.47611)" /><g
     id="g5832"
     transform="matrix(0.15,0,0,0.15,487.98419,-61.426323)"><g
       transform="translate(-736.41313,49.094209)"
       id="g5996"><g
         id="g5319"
         transform="matrix(0.52816679,0.63013348,-0.88508377,0.77387316,-2051.1603,307.84758)"
         style="stroke:#000000;stroke-opacity:1"><path
           id="path5271"
           d="m 460.94589,157.382 c 10.593,-20.303 0,-45.021 -24.717,-48.552 -11.476,-1.766 -28.248,7.945 -39.724,25.6 l -29.97148,100.04697 6.70848,-133.78683 c 4.414,-15.007002 -0.883,-30.897002 -14.124,-38.841002 -5.297,-4.414 -11.476,-6.179 -18.538,-6.179 -19.421,0 -30.897,21.186 -35.31,35.31 L 295.91341,207.99497 290.19796,43.850034 c -0.64496,-18.523102 -14.124,-34.4279996 -32.662,-35.3099995 -20.303,-0.883 -38.70777,11.4926775 -37.959,35.3099995 l 5.71545,181.799936 -44.139,-156.249 c -7.062,-25.6 -15.89,-37.959 -35.31,-37.959 -15.007,0 -28.248,8.828 -33.545,22.952 -1.766,6.179 -1.766,12.359 0,19.421 l 42.372,187.145 -15.89,-23.835 c -17.655,-30.897 -60.028006,-45.021 -88.276006,-34.428 -4.414,0.883 -7.062,3.531 -10.593,5.297 -10.593,7.062 -8.828,15.007 -8.828,17.655 0,2.648 50.317,53.848 79.448006,105.931 0,0 25.6,42.372 52.966,70.621 l 0,26.483 c 65.55838,51.26269 151.95084,43.94762 245.407,16.772 1.766,-7.945 5.297,-19.421 10.593,-25.6 9.71,-11.476 22.952,-43.255 15.007,-87.393 -2.648,-15.007 -1.766,-38.841 1.766,-52.966 l 0,-0.883 z"
           style="fill:#fdc794;stroke:#000000;stroke-opacity:1"
           inkscape:connector-curvature="0"
           sodipodi:nodetypes="ccccccsccscsccsccccccsccccccccc" /><g
           id="g5283"
           style="stroke:#000000;stroke-opacity:1" /><g
           id="g5285"
           style="stroke:#000000;stroke-opacity:1" /><g
           id="g5287"
           style="stroke:#000000;stroke-opacity:1" /><g
           id="g5289"
           style="stroke:#000000;stroke-opacity:1" /><g
           id="g5291"
           style="stroke:#000000;stroke-opacity:1" /><g
           id="g5293"
           style="stroke:#000000;stroke-opacity:1" /><g
           id="g5295"
           style="stroke:#000000;stroke-opacity:1" /><g
           id="g5297"
           style="stroke:#000000;stroke-opacity:1" /><g
           id="g5299"
           style="stroke:#000000;stroke-opacity:1" /><g
           id="g5301"
           style="stroke:#000000;stroke-opacity:1" /><g
           id="g5303"
           style="stroke:#000000;stroke-opacity:1" /><g
           id="g5305"
           style="stroke:#000000;stroke-opacity:1" /><g
           id="g5307"
           style="stroke:#000000;stroke-opacity:1" /><g
           id="g5309"
           style="stroke:#000000;stroke-opacity:1" /><g
           id="g5311"
           style="stroke:#000000;stroke-opacity:1" /></g><g
         id="g5380"
         transform="translate(-2319.7014,392.75367)"
         style="stroke:#000000;stroke-opacity:1"><path
           id="path4673"
           d="m 368.42979,15.79426 0,14.51 -28.27,0 -199.73,0 0,-14.51 c 0,-18.499996 14.99,-33.489997 33.49,-33.489997 l 161.02,0 c 18.49,0 33.49,14.990001 33.49,33.489997 z"
           style="fill:#b2b1aa;stroke:#000000;stroke-opacity:1"
           inkscape:connector-curvature="0" /><polygon
           transform="matrix(1,0,0,1.4513564,106.67979,-50.01442)"
           id="polygon4679"
           points="261.75,48 261.75,138.5 261.75,179 261.75,322 68.45,322 233.48,49.22 233.48,48 "
           style="fill:#1a1a1a;stroke:#000000;stroke-opacity:1" /><polygon
           transform="matrix(1.0614507,0,0,1.4513564,104.60583,-50.01442)"
           id="polygon4683"
           points="33.75,322 33.75,48 233.48,48 233.48,49.22 68.45,322 "
           style="fill:#4d4d4d;stroke:#000000;stroke-opacity:1" /><path
           id="path4675"
           d="m 175.12979,404.30426 193.3,0 0,16.51 c 0,18.5 -15,33.49 -33.49,33.49 l -9.32,0 -151.7,0 c -18.5,0 -33.49,-14.99 -33.49,-33.49 l 0,-16.51 34.7,0 z"
           style="fill:#b2b1aa;stroke:#000000;stroke-opacity:1"
           inkscape:connector-curvature="0" /><circle
           id="circle4687"
           r="14.999"
           cy="429.30426"
           cx="254.42981"
           style="fill:#969489;stroke:#000000;stroke-opacity:1" /></g><g
         transform="matrix(0.91892008,-0.20472688,0.25588791,1.1485573,-2263.2719,588.26657)"
         id="g5431"><path
           inkscape:connector-curvature="0"
           style="fill:#fdc794;stroke:#000000;stroke-opacity:1"
           d="m 368.884,238.644 c 0,-16.488 -13.885,-30.373 -30.373,-30.373 l 0,0 c -16.488,0 -30.373,13.885 -30.373,30.373 l 0,-4.339 0,-30.373 c 0,-16.488 -13.885,-30.373 -30.373,-30.373 l 0,0 c -16.488,0 -30.373,13.885 -30.373,30.373 l 0,4.339 0,-107.607 c 0,-17.356 -13.885,-31.241 -30.373,-31.241 l 0,0 c -16.488,0 -30.373,13.885 -30.373,31.241 l 0,203.064 -13.017,-21.695 c -15.62,-27.77 -51.2,-39.919 -75.498,-30.373 -3.471,0.868 -6.075,2.603 -8.678,5.207 -8.678,5.207 -6.942,13.017 -6.942,14.753 0,1.736 43.39,47.729 67.688,93.722 0,0 21.695,34.712 45.125,59.878 0,0 42.44608,55.31572 65.94154,56.12658 23.49546,0.81086 116.54406,-9.68214 153.61146,-37.90258 6.942,-7.81 14.753,-27.77 14.753,-54.671 l 0,-115.417 c 0,-16.488 -13.885,-30.373 -30.373,-30.373 l 0,0 c -16.488,0 -30.373,13.885 -30.373,30.373 l 0,-4.339 z"
           id="path5433"
           sodipodi:nodetypes="sccccsccscsccsccccscczcssccccs" /><g
           id="g5449"><path
             inkscape:connector-curvature="0"
             style="fill:#71c386"
             d="m 221.359,43.39 c -5.207,0 -8.678,-3.471 -8.678,-8.678 l 0,-26.034 c 0,-5.207 3.471,-8.678 8.678,-8.678 5.207,0 8.678,3.471 8.678,8.678 l 0,26.034 c 0,5.207 -3.471,8.678 -8.678,8.678"
             id="path5451" /><path
             inkscape:connector-curvature="0"
             style="fill:#71c386"
             d="m 152.803,104.136 -26.034,0 c -5.207,0 -8.678,-3.471 -8.678,-8.678 0,-5.207 3.471,-8.678 8.678,-8.678 l 26.034,0 c 5.207,0 8.678,3.471 8.678,8.678 0,5.206 -4.339,8.678 -8.678,8.678"
             id="path5453" /><path
             inkscape:connector-curvature="0"
             style="fill:#71c386"
             d="m 308.139,104.136 -26.034,0 c -5.207,0 -8.678,-3.471 -8.678,-8.678 0,-5.207 3.471,-8.678 8.678,-8.678 l 26.034,0 c 5.207,0 8.678,3.471 8.678,8.678 0,5.206 -4.339,8.678 -8.678,8.678"
             id="path5455" /><path
             inkscape:connector-curvature="0"
             style="fill:#71c386"
             d="m 264.749,60.746 c -2.603,0 -4.339,-0.868 -6.075,-2.603 -3.471,-3.471 -3.471,-8.678 0,-12.149 L 276.03,28.638 c 3.471,-3.471 8.678,-3.471 12.149,0 3.471,3.471 3.471,8.678 0,12.149 l -17.356,17.356 c -1.735,1.735 -3.471,2.603 -6.074,2.603"
             id="path5457" /><path
             inkscape:connector-curvature="0"
             style="fill:#71c386"
             d="m 170.159,60.746 c -2.603,0 -4.339,-0.868 -6.075,-2.603 L 146.728,40.787 c -3.471,-3.471 -3.471,-8.678 0,-12.149 3.471,-3.471 8.678,-3.471 12.149,0 l 17.356,17.356 c 3.471,3.471 3.471,8.678 0,12.149 -1.735,1.735 -4.338,2.603 -6.074,2.603"
             id="path5459" /></g><g
           id="g5461" /><g
           id="g5463" /><g
           id="g5465" /><g
           id="g5467" /><g
           id="g5469" /><g
           id="g5471" /><g
           id="g5473" /><g
           id="g5475" /><g
           id="g5477" /><g
           id="g5479" /><g
           id="g5481" /><g
           id="g5483" /><g
           id="g5485" /><g
           id="g5487" /><g
           id="g5489" /></g></g></g><g
     id="g5563"
     transform="matrix(0.91892008,-0.20472688,0.25588791,1.1485573,865.11619,-7.8841098)" /><g
     id="g5565"
     transform="matrix(0.91892008,-0.20472688,0.25588791,1.1485573,865.11619,-7.8841098)" /><g
     id="g5567"
     transform="matrix(0.91892008,-0.20472688,0.25588791,1.1485573,865.11619,-7.8841098)" /><g
     id="g5569"
     transform="matrix(0.91892008,-0.20472688,0.25588791,1.1485573,865.11619,-7.8841098)" /><g
     id="g5571"
     transform="matrix(0.91892008,-0.20472688,0.25588791,1.1485573,865.11619,-7.8841098)" /><g
     id="g5573"
     transform="matrix(0.91892008,-0.20472688,0.25588791,1.1485573,865.11619,-7.8841098)" /><g
     id="g5575"
     transform="matrix(0.91892008,-0.20472688,0.25588791,1.1485573,865.11619,-7.8841098)" /><g
     id="g5577"
     transform="matrix(0.91892008,-0.20472688,0.25588791,1.1485573,865.11619,-7.8841098)" /><g
     id="g5579"
     transform="matrix(0.91892008,-0.20472688,0.25588791,1.1485573,865.11619,-7.8841098)" /><g
     id="g5581"
     transform="matrix(0.91892008,-0.20472688,0.25588791,1.1485573,865.11619,-7.8841098)" /><g
     id="g5583"
     transform="matrix(0.91892008,-0.20472688,0.25588791,1.1485573,865.11619,-7.8841098)" /><g
     id="g5585"
     transform="matrix(0.91892008,-0.20472688,0.25588791,1.1485573,865.11619,-7.8841098)" /><g
     id="g5587"
     transform="matrix(0.91892008,-0.20472688,0.25588791,1.1485573,865.11619,-7.8841098)" /><g
     id="g5589"
     transform="matrix(0.91892008,-0.20472688,0.25588791,1.1485573,865.11619,-7.8841098)" /><g
     id="g5591"
     transform="matrix(0.91892008,-0.20472688,0.25588791,1.1485573,865.11619,-7.8841098)" /><g
     style="stroke:#000000;stroke-opacity:1"
     id="g5597"
     transform="matrix(-0.40654231,0.71466895,1.0095654,0.60252032,1609.2365,-312.58096)" /><g
     style="stroke:#000000;stroke-opacity:1"
     id="g5599"
     transform="matrix(-0.40654231,0.71466895,1.0095654,0.60252032,1609.2365,-312.58096)" /><g
     style="stroke:#000000;stroke-opacity:1"
     id="g5601"
     transform="matrix(-0.40654231,0.71466895,1.0095654,0.60252032,1609.2365,-312.58096)" /><g
     style="stroke:#000000;stroke-opacity:1"
     id="g5603"
     transform="matrix(-0.40654231,0.71466895,1.0095654,0.60252032,1609.2365,-312.58096)" /><g
     style="stroke:#000000;stroke-opacity:1"
     id="g5605"
     transform="matrix(-0.40654231,0.71466895,1.0095654,0.60252032,1609.2365,-312.58096)" /><g
     style="stroke:#000000;stroke-opacity:1"
     id="g5607"
     transform="matrix(-0.40654231,0.71466895,1.0095654,0.60252032,1609.2365,-312.58096)" /><g
     style="stroke:#000000;stroke-opacity:1"
     id="g5609"
     transform="matrix(-0.40654231,0.71466895,1.0095654,0.60252032,1609.2365,-312.58096)" /><g
     style="stroke:#000000;stroke-opacity:1"
     id="g5611"
     transform="matrix(-0.40654231,0.71466895,1.0095654,0.60252032,1609.2365,-312.58096)" /><g
     style="stroke:#000000;stroke-opacity:1"
     id="g5613"
     transform="matrix(-0.40654231,0.71466895,1.0095654,0.60252032,1609.2365,-312.58096)" /><g
     style="stroke:#000000;stroke-opacity:1"
     id="g5615"
     transform="matrix(-0.40654231,0.71466895,1.0095654,0.60252032,1609.2365,-312.58096)" /><g
     style="stroke:#000000;stroke-opacity:1"
     id="g5617"
     transform="matrix(-0.40654231,0.71466895,1.0095654,0.60252032,1609.2365,-312.58096)" /><g
     style="stroke:#000000;stroke-opacity:1"
     id="g5619"
     transform="matrix(-0.40654231,0.71466895,1.0095654,0.60252032,1609.2365,-312.58096)" /><g
     style="stroke:#000000;stroke-opacity:1"
     id="g5621"
     transform="matrix(-0.40654231,0.71466895,1.0095654,0.60252032,1609.2365,-312.58096)" /><g
     style="stroke:#000000;stroke-opacity:1"
     id="g5623"
     transform="matrix(-0.40654231,0.71466895,1.0095654,0.60252032,1609.2365,-312.58096)" /><g
     style="stroke:#000000;stroke-opacity:1"
     id="g5625"
     transform="matrix(-0.40654231,0.71466895,1.0095654,0.60252032,1609.2365,-312.58096)" /></svg>