<?xml version="1.0" encoding="UTF-8" standalone="no"?>
<!-- Generator: Adobe Illustrator 19.0.0, SVG Export Plug-In . SVG Version: 6.00 Build 0)  -->

<svg
   xmlns:dc="http://purl.org/dc/elements/1.1/"
   xmlns:cc="http://creativecommons.org/ns#"
   xmlns:rdf="http://www.w3.org/1999/02/22-rdf-syntax-ns#"
   xmlns:svg="http://www.w3.org/2000/svg"
   xmlns="http://www.w3.org/2000/svg"
   xmlns:sodipodi="http://sodipodi.sourceforge.net/DTD/sodipodi-0.dtd"
   xmlns:inkscape="http://www.inkscape.org/namespaces/inkscape"
   version="1.1"
   id="Layer_1"
   x="0px"
   y="0px"
   viewBox="0 0 135 110"
   xml:space="preserve"
   inkscape:version="0.91 r13725"
   sodipodi:docname="grip22.svg"
   width="135"
   height="110"><metadata
     id="metadata49"><rdf:RDF><cc:Work
         rdf:about=""><dc:format>image/svg+xml</dc:format><dc:type
           rdf:resource="http://purl.org/dc/dcmitype/StillImage" /><dc:title></dc:title></cc:Work></rdf:RDF></metadata><defs
     id="defs47" /><sodipodi:namedview
     pagecolor="#ffffff"
     bordercolor="#666666"
     borderopacity="1"
     objecttolerance="10"
     gridtolerance="10"
     guidetolerance="10"
     inkscape:pageopacity="0"
     inkscape:pageshadow="2"
     inkscape:window-width="1280"
     inkscape:window-height="731"
     id="namedview45"
     showgrid="false"
     inkscape:zoom="1.8435915"
     inkscape:cx="-4.0812633"
     inkscape:cy="19.075427"
     inkscape:window-x="0"
     inkscape:window-y="0"
     inkscape:window-maximized="1"
     inkscape:current-layer="Layer_1"
     inkscape:snap-center="true"
     inkscape:snap-object-midpoints="true"
     fit-margin-top="0"
     fit-margin-left="0"
     fit-margin-right="0"
     fit-margin-bottom="0" /><g
     id="g15"
     transform="translate(4035.0712,-686.81378)" /><g
     id="g17"
     transform="translate(4035.0712,-686.81378)" /><g
     id="g19"
     transform="translate(4035.0712,-686.81378)" /><g
     id="g21"
     transform="translate(4035.0712,-686.81378)" /><g
     id="g23"
     transform="translate(4035.0712,-686.81378)" /><g
     id="g25"
     transform="translate(4035.0712,-686.81378)" /><g
     id="g27"
     transform="translate(4035.0712,-686.81378)" /><g
     id="g29"
     transform="translate(4035.0712,-686.81378)" /><g
     id="g31"
     transform="translate(4035.0712,-686.81378)" /><g
     id="g33"
     transform="translate(4035.0712,-686.81378)" /><g
     id="g35"
     transform="translate(4035.0712,-686.81378)" /><g
     id="g37"
     transform="translate(4035.0712,-686.81378)" /><g
     id="g39"
     transform="translate(4035.0712,-686.81378)" /><g
     id="g41"
     transform="translate(4035.0712,-686.81378)" /><g
     id="g43"
     transform="translate(4035.0712,-686.81378)" /><g
     id="g4689"
     transform="translate(4567.0079,-600.17016)" /><g
     id="g4691"
     transform="translate(4567.0079,-600.17016)" /><g
     id="g4693"
     transform="translate(4567.0079,-600.17016)" /><g
     id="g4695"
     transform="translate(4567.0079,-600.17016)" /><g
     id="g4697"
     transform="translate(4567.0079,-600.17016)" /><g
     id="g4699"
     transform="translate(4567.0079,-600.17016)" /><g
     id="g4701"
     transform="translate(4567.0079,-600.17016)" /><g
     id="g4703"
     transform="translate(4567.0079,-600.17016)" /><g
     id="g4705"
     transform="translate(4567.0079,-600.17016)" /><g
     id="g4707"
     transform="translate(4567.0079,-600.17016)" /><g
     id="g4709"
     transform="translate(4567.0079,-600.17016)" /><g
     id="g4711"
     transform="translate(4567.0079,-600.17016)" /><g
     id="g4713"
     transform="translate(4567.0079,-600.17016)" /><g
     id="g4715"
     transform="translate(4567.0079,-600.17016)" /><g
     id="g4717"
     transform="translate(4567.0079,-600.17016)" /><g
     id="g5563"
     transform="matrix(0.91892008,-0.20472688,0.25588791,1.1485573,2065.0214,29.421838)" /><g
     id="g5565"
     transform="matrix(0.91892008,-0.20472688,0.25588791,1.1485573,2065.0214,29.421838)" /><g
     id="g5567"
     transform="matrix(0.91892008,-0.20472688,0.25588791,1.1485573,2065.0214,29.421838)" /><g
     id="g5569"
     transform="matrix(0.91892008,-0.20472688,0.25588791,1.1485573,2065.0214,29.421838)" /><g
     id="g5571"
     transform="matrix(0.91892008,-0.20472688,0.25588791,1.1485573,2065.0214,29.421838)" /><g
     id="g5573"
     transform="matrix(0.91892008,-0.20472688,0.25588791,1.1485573,2065.0214,29.421838)" /><g
     id="g5575"
     transform="matrix(0.91892008,-0.20472688,0.25588791,1.1485573,2065.0214,29.421838)" /><g
     id="g5577"
     transform="matrix(0.91892008,-0.20472688,0.25588791,1.1485573,2065.0214,29.421838)" /><g
     id="g5579"
     transform="matrix(0.91892008,-0.20472688,0.25588791,1.1485573,2065.0214,29.421838)" /><g
     id="g5581"
     transform="matrix(0.91892008,-0.20472688,0.25588791,1.1485573,2065.0214,29.421838)" /><g
     id="g5583"
     transform="matrix(0.91892008,-0.20472688,0.25588791,1.1485573,2065.0214,29.421838)" /><g
     id="g5585"
     transform="matrix(0.91892008,-0.20472688,0.25588791,1.1485573,2065.0214,29.421838)" /><g
     id="g5587"
     transform="matrix(0.91892008,-0.20472688,0.25588791,1.1485573,2065.0214,29.421838)" /><g
     id="g5589"
     transform="matrix(0.91892008,-0.20472688,0.25588791,1.1485573,2065.0214,29.421838)" /><g
     id="g5591"
     transform="matrix(0.91892008,-0.20472688,0.25588791,1.1485573,2065.0214,29.421838)" /><g
     style="stroke:#000000;stroke-opacity:1"
     id="g5597"
     transform="matrix(-0.40654231,0.71466895,1.0095654,0.60252032,2809.1417,-275.27501)" /><g
     style="stroke:#000000;stroke-opacity:1"
     id="g5599"
     transform="matrix(-0.40654231,0.71466895,1.0095654,0.60252032,2809.1417,-275.27501)" /><g
     style="stroke:#000000;stroke-opacity:1"
     id="g5601"
     transform="matrix(-0.40654231,0.71466895,1.0095654,0.60252032,2809.1417,-275.27501)" /><g
     style="stroke:#000000;stroke-opacity:1"
     id="g5603"
     transform="matrix(-0.40654231,0.71466895,1.0095654,0.60252032,2809.1417,-275.27501)" /><g
     style="stroke:#000000;stroke-opacity:1"
     id="g5605"
     transform="matrix(-0.40654231,0.71466895,1.0095654,0.60252032,2809.1417,-275.27501)" /><g
     style="stroke:#000000;stroke-opacity:1"
     id="g5607"
     transform="matrix(-0.40654231,0.71466895,1.0095654,0.60252032,2809.1417,-275.27501)" /><g
     style="stroke:#000000;stroke-opacity:1"
     id="g5609"
     transform="matrix(-0.40654231,0.71466895,1.0095654,0.60252032,2809.1417,-275.27501)" /><g
     style="stroke:#000000;stroke-opacity:1"
     id="g5611"
     transform="matrix(-0.40654231,0.71466895,1.0095654,0.60252032,2809.1417,-275.27501)" /><g
     style="stroke:#000000;stroke-opacity:1"
     id="g5613"
     transform="matrix(-0.40654231,0.71466895,1.0095654,0.60252032,2809.1417,-275.27501)" /><g
     style="stroke:#000000;stroke-opacity:1"
     id="g5615"
     transform="matrix(-0.40654231,0.71466895,1.0095654,0.60252032,2809.1417,-275.27501)" /><g
     style="stroke:#000000;stroke-opacity:1"
     id="g5617"
     transform="matrix(-0.40654231,0.71466895,1.0095654,0.60252032,2809.1417,-275.27501)" /><g
     style="stroke:#000000;stroke-opacity:1"
     id="g5619"
     transform="matrix(-0.40654231,0.71466895,1.0095654,0.60252032,2809.1417,-275.27501)" /><g
     style="stroke:#000000;stroke-opacity:1"
     id="g5621"
     transform="matrix(-0.40654231,0.71466895,1.0095654,0.60252032,2809.1417,-275.27501)" /><g
     style="stroke:#000000;stroke-opacity:1"
     id="g5623"
     transform="matrix(-0.40654231,0.71466895,1.0095654,0.60252032,2809.1417,-275.27501)" /><g
     style="stroke:#000000;stroke-opacity:1"
     id="g5625"
     transform="matrix(-0.40654231,0.71466895,1.0095654,0.60252032,2809.1417,-275.27501)" /><g
     id="g5881"
     transform="matrix(0.15,0,0,0.15,662.82232,-58.830732)"><g
       transform="translate(12.273552,12.273552)"
       id="g5940"><g
         id="g5892"
         style="stroke:#000000;stroke-opacity:1"
         transform="matrix(0.20771978,0.79553809,-1.131109,0.32069517,-3947.5149,498.01226)"><path
           id="path5894"
           d="m 427.85994,202.77414 c 10.593,-20.303 0,-45.021 -24.717,-48.552 -11.476,-1.766 -28.248,7.945 -39.724,25.6 l -1.68994,58.56686 8.15961,-94.05175 c 4.414,-15.007 -0.883,-30.897 -14.124,-38.841 -5.297,-4.414 -11.476,-6.179001 -18.538,-6.179001 -19.421,0 -30.897,21.186001 -35.31,35.310001 L 291.109,211.907 276.82268,94.927962 c -2.2518,-18.43816 -14.124,-34.428 -32.662,-35.31 -20.303,-0.883 -40.47727,11.577877 -37.959,35.31 L 220.488,229.562 176.349,73.313 c -7.062,-25.6 -15.89,-37.959 -35.31,-37.959 -15.007,0 -28.248,8.828 -33.545,22.952 -1.766,6.179 -1.766,12.359 0,19.421 l 42.372,187.145 -15.89,-23.835 C 116.321,210.14 73.948,196.016 45.7,206.609 c -4.414,0.883 -7.062,3.531 -10.593,5.297 -10.593,7.062 -8.828,15.007 -8.828,17.655 0,2.648 50.317,53.848 79.448,105.931 0,0 25.6,42.372 52.966,70.621 l 0,26.483 c 65.55838,51.26269 151.95084,43.94762 245.407,16.772 1.766,-7.945 5.297,-19.421 10.593,-25.6 9.71,-11.476 22.952,-43.255 15.007,-87.393 -2.648,-15.007 -1.766,-38.841 1.766,-52.966 l 0,-0.883 z"
           style="fill:#fdc794;stroke:#000000;stroke-opacity:1"
           inkscape:connector-curvature="0"
           sodipodi:nodetypes="ccccccsccscsccsccccccsccccccccc" /><g
           id="g5896"
           style="stroke:#000000;stroke-opacity:1" /><g
           id="g5898"
           style="stroke:#000000;stroke-opacity:1" /><g
           id="g5900"
           style="stroke:#000000;stroke-opacity:1" /><g
           id="g5902"
           style="stroke:#000000;stroke-opacity:1" /><g
           id="g5904"
           style="stroke:#000000;stroke-opacity:1" /><g
           id="g5906"
           style="stroke:#000000;stroke-opacity:1" /><g
           id="g5908"
           style="stroke:#000000;stroke-opacity:1" /><g
           id="g5910"
           style="stroke:#000000;stroke-opacity:1" /><g
           id="g5912"
           style="stroke:#000000;stroke-opacity:1" /><g
           id="g5914"
           style="stroke:#000000;stroke-opacity:1" /><g
           id="g5916"
           style="stroke:#000000;stroke-opacity:1" /><g
           id="g5918"
           style="stroke:#000000;stroke-opacity:1" /><g
           id="g5920"
           style="stroke:#000000;stroke-opacity:1" /><g
           id="g5922"
           style="stroke:#000000;stroke-opacity:1" /><g
           id="g5924"
           style="stroke:#000000;stroke-opacity:1" /></g><g
         transform="matrix(-0.25267463,0.78242181,1.1110165,0.38457158,-3993.3526,490.45601)"
         style="stroke:#000000;stroke-opacity:1"
         id="g5818"><path
           sodipodi:nodetypes="ccccccsccscsccsccccccsccccccccc"
           inkscape:connector-curvature="0"
           style="fill:#fdc794;stroke:#000000;stroke-opacity:1"
           d="m 427.85994,202.77414 c 10.593,-20.303 0,-45.021 -24.717,-48.552 -11.476,-1.766 -28.248,7.945 -39.724,25.6 l -1.68994,58.56686 8.15961,-94.05175 c 4.414,-15.007 -0.883,-30.897 -14.124,-38.841 -5.297,-4.414 -11.476,-6.179001 -18.538,-6.179001 -19.421,0 -30.897,21.186001 -35.31,35.310001 L 291.109,211.907 276.82268,94.927962 c -2.2518,-18.43816 -14.124,-34.428 -32.662,-35.31 -20.303,-0.883 -40.47727,11.577877 -37.959,35.31 L 220.488,229.562 176.349,73.313 c -7.062,-25.6 -15.89,-37.959 -35.31,-37.959 -15.007,0 -28.248,8.828 -33.545,22.952 -1.766,6.179 -1.766,12.359 0,19.421 l 42.372,187.145 -15.89,-23.835 C 116.321,210.14 73.948,196.016 45.7,206.609 c -4.414,0.883 -7.062,3.531 -10.593,5.297 -10.593,7.062 -8.828,15.007 -8.828,17.655 0,2.648 50.317,53.848 79.448,105.931 0,0 25.6,42.372 52.966,70.621 l 0,26.483 c 65.55838,51.26269 151.95084,43.94762 245.407,16.772 1.766,-7.945 5.297,-19.421 10.593,-25.6 9.71,-11.476 22.952,-43.255 15.007,-87.393 -2.648,-15.007 -1.766,-38.841 1.766,-52.966 l 0,-0.883 z"
           id="path5820" /><g
           style="stroke:#000000;stroke-opacity:1"
           id="g5822" /><g
           style="stroke:#000000;stroke-opacity:1"
           id="g5824" /><g
           style="stroke:#000000;stroke-opacity:1"
           id="g5826" /><g
           style="stroke:#000000;stroke-opacity:1"
           id="g5828" /><g
           style="stroke:#000000;stroke-opacity:1"
           id="g5830" /><g
           style="stroke:#000000;stroke-opacity:1"
           id="g5832" /><g
           style="stroke:#000000;stroke-opacity:1"
           id="g5834" /><g
           style="stroke:#000000;stroke-opacity:1"
           id="g5836" /><g
           style="stroke:#000000;stroke-opacity:1"
           id="g5838" /><g
           style="stroke:#000000;stroke-opacity:1"
           id="g5840" /><g
           style="stroke:#000000;stroke-opacity:1"
           id="g5842" /><g
           style="stroke:#000000;stroke-opacity:1"
           id="g5844" /><g
           style="stroke:#000000;stroke-opacity:1"
           id="g5846" /><g
           style="stroke:#000000;stroke-opacity:1"
           id="g5848" /><g
           style="stroke:#000000;stroke-opacity:1"
           id="g5850" /></g><g
         id="g5885"
         transform="matrix(0,1,-1,0,-3280.5652,4515.4965)"><path
           id="path5854"
           d="m -3628.0125,465.53949 0,17.1812 -45.4357,0 -321.0077,0 0,-17.1812 c 0,-21.90572 24.092,-39.65526 53.8254,-39.65526 l 258.7927,0 c 29.7172,0 53.8253,17.74954 53.8253,39.65526 z"
           style="fill:#b2b1aa;stroke:#000000;stroke-width:1.37952304;stroke-opacity:1"
           inkscape:connector-curvature="0" /><polygon
           transform="matrix(1.6072082,0,0,1.7185411,-4048.6991,387.61589)"
           id="polygon5856"
           points="261.75,322 68.45,322 233.48,49.22 233.48,48 261.75,48 261.75,138.5 261.75,179 "
           style="fill:#1a1a1a;stroke:#000000;stroke-opacity:1" /><polygon
           transform="matrix(1.7059722,0,0,1.7185411,-4052.0325,387.61589)"
           id="polygon5858"
           points="33.75,322 33.75,48 233.48,48 233.48,49.22 68.45,322 "
           style="fill:#4d4d4d;stroke:#000000;stroke-opacity:1" /><path
           id="path5860"
           d="m -3938.6858,925.57151 310.6733,0 0,19.54938 c 0,21.90572 -24.1081,39.65526 -53.8253,39.65526 l -14.9792,0 -243.8135,0 c -29.7334,0 -53.8254,-17.74954 -53.8254,-39.65526 l 0,-19.54938 55.7701,0 z"
           style="fill:#b2b1aa;stroke:#000000;stroke-width:1.37952304;stroke-opacity:1"
           inkscape:connector-curvature="0" /><circle
           style="fill:#969489"
           cx="-3811.2339"
           cy="955.17383"
           r="14.999"
           id="circle5883" /></g><path
         id="path5864"
         d="m -3689.2102,798.54284 -94.8111,-19.5205 c -38.7127,-7.32015 -62.3228,-38.24324 -54.9634,-63.30926 0.2585,-3.74499 2.859,-6.46291 4.289,-9.69444 6.3266,-10.08703 15.8031,-10.43559 18.8601,-11.02466 3.0569,-0.58899 70.8391,28.47257 135.9885,40.3056"
         style="fill:#fdc794;stroke:#000000;stroke-width:0.98308444;stroke-opacity:1"
         inkscape:connector-curvature="0"
         sodipodi:nodetypes="ccccsc" /><g
         transform="matrix(-0.06172458,-0.98340596,1.2291581,-0.07714947,-3906.7994,959.10771)"
         id="g5866"><path
           id="path5868"
           d="m 221.359,43.39 c -5.207,0 -8.678,-3.471 -8.678,-8.678 l 0,-26.034 c 0,-5.207 3.471,-8.678 8.678,-8.678 5.207,0 8.678,3.471 8.678,8.678 l 0,26.034 c 0,5.207 -3.471,8.678 -8.678,8.678"
           style="fill:#71c386"
           inkscape:connector-curvature="0" /><path
           id="path5870"
           d="m 152.803,104.136 -26.034,0 c -5.207,0 -8.678,-3.471 -8.678,-8.678 0,-5.207 3.471,-8.678 8.678,-8.678 l 26.034,0 c 5.207,0 8.678,3.471 8.678,8.678 0,5.206 -4.339,8.678 -8.678,8.678"
           style="fill:#71c386"
           inkscape:connector-curvature="0" /><path
           id="path5872"
           d="m 308.139,104.136 -26.034,0 c -5.207,0 -8.678,-3.471 -8.678,-8.678 0,-5.207 3.471,-8.678 8.678,-8.678 l 26.034,0 c 5.207,0 8.678,3.471 8.678,8.678 0,5.206 -4.339,8.678 -8.678,8.678"
           style="fill:#71c386"
           inkscape:connector-curvature="0" /><path
           id="path5874"
           d="m 264.749,60.746 c -2.603,0 -4.339,-0.868 -6.075,-2.603 -3.471,-3.471 -3.471,-8.678 0,-12.149 L 276.03,28.638 c 3.471,-3.471 8.678,-3.471 12.149,0 3.471,3.471 3.471,8.678 0,12.149 l -17.356,17.356 c -1.735,1.735 -3.471,2.603 -6.074,2.603"
           style="fill:#71c386"
           inkscape:connector-curvature="0" /><path
           id="path5876"
           d="m 170.159,60.746 c -2.603,0 -4.339,-0.868 -6.075,-2.603 L 146.728,40.787 c -3.471,-3.471 -3.471,-8.678 0,-12.149 3.471,-3.471 8.678,-3.471 12.149,0 l 17.356,17.356 c 3.471,3.471 3.471,8.678 0,12.149 -1.735,1.735 -4.338,2.603 -6.074,2.603"
           style="fill:#71c386"
           inkscape:connector-curvature="0" /></g><path
         sodipodi:nodetypes="ccccsc"
         inkscape:connector-curvature="0"
         style="fill:#fdc794;stroke:#000000;stroke-width:0.98308444;stroke-opacity:1"
         d="m -4269.7086,780.4225 92.5435,-42.18148 c 36.8737,-13.87765 54.8056,-48.40475 43.2393,-71.82889 -0.8995,-3.64451 -3.9292,-5.87396 -5.8944,-8.81096 -7.9692,-8.84682 -17.3641,-7.55817 -20.4769,-7.61198 -3.1127,-0.0538 -64.8773,40.24668 -127.0155,63.1226"
         id="path5926" /><g
         id="g5928"
         transform="matrix(-0.10855417,-0.97934324,-1.2240801,0.13568177,-4031.2051,894.30118)"><path
           inkscape:connector-curvature="0"
           style="fill:#71c386"
           d="m 221.359,43.39 c -5.207,0 -8.678,-3.471 -8.678,-8.678 l 0,-26.034 c 0,-5.207 3.471,-8.678 8.678,-8.678 5.207,0 8.678,3.471 8.678,8.678 l 0,26.034 c 0,5.207 -3.471,8.678 -8.678,8.678"
           id="path5930" /><path
           inkscape:connector-curvature="0"
           style="fill:#71c386"
           d="m 152.803,104.136 -26.034,0 c -5.207,0 -8.678,-3.471 -8.678,-8.678 0,-5.207 3.471,-8.678 8.678,-8.678 l 26.034,0 c 5.207,0 8.678,3.471 8.678,8.678 0,5.206 -4.339,8.678 -8.678,8.678"
           id="path5932" /><path
           inkscape:connector-curvature="0"
           style="fill:#71c386"
           d="m 308.139,104.136 -26.034,0 c -5.207,0 -8.678,-3.471 -8.678,-8.678 0,-5.207 3.471,-8.678 8.678,-8.678 l 26.034,0 c 5.207,0 8.678,3.471 8.678,8.678 0,5.206 -4.339,8.678 -8.678,8.678"
           id="path5934" /><path
           inkscape:connector-curvature="0"
           style="fill:#71c386"
           d="m 264.749,60.746 c -2.603,0 -4.339,-0.868 -6.075,-2.603 -3.471,-3.471 -3.471,-8.678 0,-12.149 L 276.03,28.638 c 3.471,-3.471 8.678,-3.471 12.149,0 3.471,3.471 3.471,8.678 0,12.149 l -17.356,17.356 c -1.735,1.735 -3.471,2.603 -6.074,2.603"
           id="path5936" /><path
           inkscape:connector-curvature="0"
           style="fill:#71c386"
           d="m 170.159,60.746 c -2.603,0 -4.339,-0.868 -6.075,-2.603 L 146.728,40.787 c -3.471,-3.471 -3.471,-8.678 0,-12.149 3.471,-3.471 8.678,-3.471 12.149,0 l 17.356,17.356 c 3.471,3.471 3.471,8.678 0,12.149 -1.735,1.735 -4.338,2.603 -6.074,2.603"
           id="path5938" /></g></g></g></svg>