<?xml version="1.0" encoding="UTF-8" standalone="no"?>
<!-- Generator: Adobe Illustrator 19.0.0, SVG Export Plug-In . SVG Version: 6.00 Build 0)  -->

<svg
   xmlns:dc="http://purl.org/dc/elements/1.1/"
   xmlns:cc="http://creativecommons.org/ns#"
   xmlns:rdf="http://www.w3.org/1999/02/22-rdf-syntax-ns#"
   xmlns:svg="http://www.w3.org/2000/svg"
   xmlns="http://www.w3.org/2000/svg"
   xmlns:sodipodi="http://sodipodi.sourceforge.net/DTD/sodipodi-0.dtd"
   xmlns:inkscape="http://www.inkscape.org/namespaces/inkscape"
   version="1.1"
   id="Layer_1"
   x="0px"
   y="0px"
   viewBox="0 0 128 192"
   xml:space="preserve"
   inkscape:version="0.91 r13725"
   sodipodi:docname="computation.svg"
   width="128"
   height="192"
   inkscape:export-filename="/Volumes/DaStorage/Documents/PostDoc/Projects/FLMPlusPlus/Code/FLM_Balsamic/img/computation.png"
   inkscape:export-xdpi="90"
   inkscape:export-ydpi="90"><metadata
     id="metadata49"><rdf:RDF><cc:Work
         rdf:about=""><dc:format>image/svg+xml</dc:format><dc:type
           rdf:resource="http://purl.org/dc/dcmitype/StillImage" /><dc:title /></cc:Work></rdf:RDF></metadata><defs
     id="defs47" /><sodipodi:namedview
     pagecolor="#ffffff"
     bordercolor="#666666"
     borderopacity="1"
     objecttolerance="10"
     gridtolerance="10"
     guidetolerance="10"
     inkscape:pageopacity="0"
     inkscape:pageshadow="2"
     inkscape:window-width="1280"
     inkscape:window-height="731"
     id="namedview45"
     showgrid="false"
     inkscape:zoom="1.9999999"
     inkscape:cx="-2.5860402"
     inkscape:cy="82.919762"
     inkscape:window-x="0"
     inkscape:window-y="0"
     inkscape:window-maximized="1"
     inkscape:current-layer="Layer_1"
     inkscape:snap-center="true"
     inkscape:snap-object-midpoints="true"
     fit-margin-top="0"
     fit-margin-left="0"
     fit-margin-right="0"
     fit-margin-bottom="0" /><rect
     style="opacity:1;fill:#232323;fill-opacity:1;stroke:none;stroke-width:1.39999998;stroke-linecap:round;stroke-linejoin:miter;stroke-miterlimit:4;stroke-dasharray:none;stroke-dashoffset:2.5;stroke-opacity:1"
     id="rect4231"
     width="64"
     height="128"
     x="64"
     y="0" /><circle
     style="opacity:1;fill:#232323;fill-opacity:1;stroke:none;stroke-width:1.39999998;stroke-linecap:round;stroke-linejoin:miter;stroke-miterlimit:4;stroke-dasharray:none;stroke-dashoffset:2.5;stroke-opacity:1"
     id="path4224"
     cx="64"
     cy="64"
     r="64" /><path
     style="opacity:1;fill:#232323;fill-opacity:1;stroke:none;stroke-width:1.39999998;stroke-linecap:round;stroke-linejoin:miter;stroke-miterlimit:4;stroke-dasharray:none;stroke-dashoffset:2.5;stroke-opacity:1"
     d="M 64 128 A 64 64 0 0 1 128 192 L 128 128 L 64 128 z "
     id="rect4228" /><g
     id="g4279"
     transform="matrix(1.6481482,0,0,1.6481482,19.499768,19.499521)"
     style="fill:#ffffff;fill-opacity:1"><g
       id="g4237"
       style="fill:#ffffff;fill-opacity:1"><path
         style="fill:#ffffff;fill-opacity:1"
         d="m -152.66602,102.55664 c -1.533,0 -2.77929,1.2463 -2.77929,2.7793 l 0,5.05273 c 0,0.812 -0.44727,1.48002 -1.19727,1.79102 -0.748,0.313 -1.53928,0.15308 -2.11328,-0.41992 l -3.57226,-3.57227 c -1.052,-1.052 -2.88165,-1.05 -3.93165,0 l -4.55273,4.55469 c -0.525,0.525 -0.81445,1.22379 -0.81445,1.96679 0,0.742 0.28945,1.43885 0.81445,1.96485 l 3.57031,3.57226 c 0.573,0.574 0.72992,1.36328 0.41992,2.11329 -0.31,0.75 -0.97901,1.19726 -1.79101,1.19726 l -5.05274,0 c -1.533,0 -2.77929,1.2463 -2.77929,2.7793 l 0,6.43945 c 0,1.534 1.24629,2.78125 2.77929,2.78125 l 5.05274,0 c 0.812,0 1.48001,0.44727 1.79101,1.19727 0.311,0.75 0.15308,1.53928 -0.41992,2.11328 l -3.57031,3.57031 c -0.525,0.525 -0.81445,1.2248 -0.81445,1.9668 0,0.743 0.28945,1.44079 0.81445,1.96679 l 4.55273,4.55274 c 1.051,1.051 2.87965,1.053 3.93165,0 l 3.57226,-3.57227 c 0.574,-0.573 1.36228,-0.73092 2.11328,-0.41992 0.75,0.311 1.19727,0.98097 1.19727,1.79297 l 0,5.05078 c 0,1.533 1.24629,2.78125 2.77929,2.78125 l 6.43946,0 c 1.533,0 2.77929,-1.24825 2.77929,-2.78125 l 0,-5.05078 c 0,-0.812 0.44727,-1.48197 1.19727,-1.79297 0.751,-0.312 1.54123,-0.15308 2.11523,0.41992 l 3.57032,3.57227 c 1.052,1.052 2.88359,1.05 3.93359,0 l 4.55274,-4.55274 c 0.525,-0.525 0.81445,-1.22379 0.81445,-1.96679 0,-0.742 -0.28945,-1.4408 -0.81445,-1.9668 l -3.57227,-3.57031 c -0.573,-0.574 -0.72992,-1.36328 -0.41992,-2.11328 0.31,-0.75 0.98097,-1.19727 1.79297,-1.19727 l 5.05273,0 c 1.533,0 2.7793,-1.24825 2.7793,-2.78125 l 0,-6.43945 c 0,-1.533 -1.2463,-2.7793 -2.7793,-2.7793 l -5.05273,0 c -0.812,0 -1.48197,-0.44726 -1.79297,-1.19726 -0.311,-0.75 -0.15308,-1.53929 0.41992,-2.11329 l 3.57227,-3.57226 c 0.525,-0.525 0.81445,-1.22285 0.81445,-1.96485 0,-0.743 -0.28946,-1.44079 -0.81445,-1.96679 l -4.55274,-4.55469 c -1.05,-1.05 -2.87964,-1.052 -3.93164,0 l -3.57227,3.57227 c -0.574,0.573 -1.36528,0.73192 -2.11328,0.41992 -0.75,-0.311 -1.19726,-0.97902 -1.19726,-1.79102 l 0,-5.05273 c 0,-1.533 -1.2463,-2.7793 -2.7793,-2.7793 l -6.44141,0 z m 3.22071,19.57422 a 7.4246216,7.4246216 0 0 1 7.42383,7.42578 7.4246216,7.4246216 0 0 1 -7.42383,7.42383 7.4246216,7.4246216 0 0 1 -7.42383,-7.42383 7.4246216,7.4246216 0 0 1 7.42383,-7.42578 z"
         transform="translate(176.44545,-102.55635)"
         id="path4239"
         inkscape:connector-curvature="0" /></g><g
       id="g4243"
       style="fill:#ffffff;fill-opacity:1" /><g
       id="g4245"
       style="fill:#ffffff;fill-opacity:1" /><g
       id="g4247"
       style="fill:#ffffff;fill-opacity:1" /><g
       id="g4249"
       style="fill:#ffffff;fill-opacity:1" /><g
       id="g4251"
       style="fill:#ffffff;fill-opacity:1" /><g
       id="g4253"
       style="fill:#ffffff;fill-opacity:1" /><g
       id="g4255"
       style="fill:#ffffff;fill-opacity:1" /><g
       id="g4257"
       style="fill:#ffffff;fill-opacity:1" /><g
       id="g4259"
       style="fill:#ffffff;fill-opacity:1" /><g
       id="g4261"
       style="fill:#ffffff;fill-opacity:1" /><g
       id="g4263"
       style="fill:#ffffff;fill-opacity:1" /><g
       id="g4265"
       style="fill:#ffffff;fill-opacity:1" /><g
       id="g4267"
       style="fill:#ffffff;fill-opacity:1" /><g
       id="g4269"
       style="fill:#ffffff;fill-opacity:1" /><g
       id="g4271"
       style="fill:#ffffff;fill-opacity:1" /></g></svg>