<?xml version="1.0" encoding="UTF-8" standalone="no"?>
<!-- Generator: Adobe Illustrator 19.0.0, SVG Export Plug-In . SVG Version: 6.00 Build 0)  -->

<svg
   xmlns:dc="http://purl.org/dc/elements/1.1/"
   xmlns:cc="http://creativecommons.org/ns#"
   xmlns:rdf="http://www.w3.org/1999/02/22-rdf-syntax-ns#"
   xmlns:svg="http://www.w3.org/2000/svg"
   xmlns="http://www.w3.org/2000/svg"
   xmlns:sodipodi="http://sodipodi.sourceforge.net/DTD/sodipodi-0.dtd"
   xmlns:inkscape="http://www.inkscape.org/namespaces/inkscape"
   version="1.1"
   id="Layer_1"
   x="0px"
   y="0px"
   viewBox="0 0 128 128"
   xml:space="preserve"
   inkscape:version="0.91 r13725"
   sodipodi:docname="crunch.svg"
   width="128"
   height="128"
   inkscape:export-filename="/Volumes/DaStorage/Documents/PostDoc/Projects/FLMPlusPlus/Code/FLM_Balsamic/img/crunch.png"
   inkscape:export-xdpi="90"
   inkscape:export-ydpi="90"><metadata
     id="metadata49"><rdf:RDF><cc:Work
         rdf:about=""><dc:format>image/svg+xml</dc:format><dc:type
           rdf:resource="http://purl.org/dc/dcmitype/StillImage" /><dc:title></dc:title></cc:Work></rdf:RDF></metadata><defs
     id="defs47" /><sodipodi:namedview
     pagecolor="#ffffff"
     bordercolor="#666666"
     borderopacity="1"
     objecttolerance="10"
     gridtolerance="10"
     guidetolerance="10"
     inkscape:pageopacity="0"
     inkscape:pageshadow="2"
     inkscape:window-width="1280"
     inkscape:window-height="731"
     id="namedview45"
     showgrid="false"
     inkscape:zoom="0.99999995"
     inkscape:cx="-82.62996"
     inkscape:cy="26.396093"
     inkscape:window-x="0"
     inkscape:window-y="0"
     inkscape:window-maximized="1"
     inkscape:current-layer="Layer_1"
     inkscape:snap-center="true"
     inkscape:snap-object-midpoints="true"
     fit-margin-top="0"
     fit-margin-left="0"
     fit-margin-right="0"
     fit-margin-bottom="0" /><path
     inkscape:connector-curvature="0"
     id="background_20_"
     style="fill:#000000;fill-opacity:1"
     d="M 62.990497,127.99188 C 27.649069,127.43438 -0.54913105,98.332188 0.00811895,62.991006 0.56586895,27.649074 29.667311,-0.54912238 65.008743,0.00812655 100.35118,0.56587548 128.54937,29.66782 127.99187,65.009502 127.43412,100.35119 98.331929,128.54938 62.990497,127.99188 Z" /><path
     inkscape:connector-curvature="0"
     style="fill:#efc84a"
     d="m 57.848481,51.000821 0,-15.615438 -39.545243,0 0,0.176868 c 0,0 0.05196,-9.98e-4 0.04457,-9.98e-4 -1.916278,0 -3.436185,3.46564 -3.436185,7.741212 0,4.275779 1.635956,7.74142 3.552049,7.74142 0.123625,0 39.384844,-0.04302 39.384844,-0.04302 z"
     id="path4277" /><path
     inkscape:connector-curvature="0"
     style="fill:#a0a0a0;fill-opacity:1"
     d="m 57.848481,51.000821 0,-15.615438 -39.545243,0 0,0.176868 c 0,0 0.05196,-9.98e-4 0.04457,-9.98e-4 -1.916278,0 -3.436185,3.46564 -3.436185,7.741212 0,4.275779 1.635956,7.74142 3.552049,7.74142 0.123625,0 39.384844,-0.04302 39.384844,-0.04302 z"
     id="path4279" /><ellipse
     style="fill:#828282;fill-opacity:1"
     cx="43.302418"
     cy="-57.69492"
     rx="7.7414198"
     ry="3.4701872"
     id="ellipse4281"
     transform="matrix(0,1,-1,0,0,0)" /><path
     inkscape:connector-curvature="0"
     style="fill:#a0a0a0;fill-opacity:1"
     d="m 77.990683,71.644607 0,-15.267938 -59.687445,0 0,-0.170632 c 0,0 0.05196,-0.0015 0.04457,-0.0015 -1.916278,0 -3.436185,3.466056 -3.436185,7.741628 0,4.275363 1.520092,7.74142 3.436369,7.74142 0.123256,0 59.642726,-0.04302 59.642726,-0.04302 z"
     id="path4283" /><ellipse
     style="fill:#828282;fill-opacity:1"
     cx="63.945999"
     cy="-78.068848"
     rx="7.7416277"
     ry="3.4700024"
     id="ellipse4285"
     transform="matrix(0,1,-1,0,0,0)" /><path
     inkscape:connector-curvature="0"
     style="fill:#a0a0a0;fill-opacity:1"
     d="m 42.880423,92.287979 0,-15.335694 -24.577185,0 0,-0.102462 c 0,0 0.05196,-0.0015 0.04457,-0.0015 -1.916278,0 -3.436185,3.466056 -3.436185,7.741421 0,4.275571 1.493482,7.741627 3.40976,7.741627 0.123994,0 24.559075,-0.04344 24.559075,-0.04344 z"
     id="path4287" /><ellipse
     style="fill:#828282;fill-opacity:1"
     cx="84.589996"
     cy="-43.01107"
     rx="7.7416277"
     ry="3.4700024"
     id="ellipse4289"
     transform="matrix(0,1,-1,0,0,0)" /><path
     inkscape:connector-curvature="0"
     style="opacity:0.2;fill:#5d5d5d;enable-background:new"
     d="m 57.848481,35.561211 0,-0.175828 -39.545243,0 0,0.207835 c 0,0 0.09221,0 0.08482,0 -1.913136,0 -3.443022,3.325352 -3.448011,7.689877 l 39.285056,0 c 0.0052,-4.364525 1.405889,-7.721884 3.623379,-7.721884 z"
     id="path4291" /><path
     inkscape:connector-curvature="0"
     style="opacity:0.2;fill:#5d5d5d;enable-background:new"
     d="m 57.449887,35.582203 c -0.03603,0.0058 -0.07318,0.0106 -0.109581,0.0187 -0.02661,0.0061 -0.05267,0.01538 -0.07928,0.02245 -0.03141,0.0087 -0.0632,0.016 -0.09424,0.02681 -0.02735,0.0094 -0.05451,0.02161 -0.08149,0.03242 -0.02994,0.01164 -0.05969,0.02182 -0.08907,0.03533 -0.02809,0.01289 -0.05599,0.02889 -0.0839,0.04344 -0.0279,0.01413 -0.05618,0.02702 -0.08352,0.04281 -0.03031,0.01746 -0.05987,0.03783 -0.08944,0.05674 -0.02495,0.016 -0.05008,0.03034 -0.07503,0.0476 -0.03178,0.02182 -0.0632,0.04718 -0.09461,0.07108 -0.02236,0.01704 -0.04435,0.03242 -0.06634,0.05009 -0.034,0.02743 -0.06671,0.05778 -0.0996,0.08771 -0.0194,0.01704 -0.03899,0.03284 -0.05766,0.0505 -0.03419,0.03221 -0.06745,0.06713 -0.101081,0.101423 -0.01755,0.01808 -0.03529,0.03471 -0.05266,0.05341 -0.03493,0.03783 -0.06948,0.07835 -0.103852,0.118466 -0.01515,0.01767 -0.03049,0.03388 -0.04527,0.05196 -0.03511,0.04261 -0.06967,0.08791 -0.104038,0.13343 -0.01349,0.01808 -0.02772,0.03429 -0.04102,0.05258 -0.03696,0.04946 -0.07281,0.102255 -0.108473,0.154837 -0.01072,0.01559 -0.02144,0.02993 -0.03197,0.04593 -0.03733,0.0557 -0.07355,0.114309 -0.10958,0.173126 -0.0087,0.01413 -0.01811,0.02764 -0.02679,0.04178 -0.03844,0.06464 -0.07595,0.131351 -0.113646,0.198898 -0.0053,0.01039 -0.01127,0.01974 -0.01682,0.03014 -0.03844,0.07046 -0.07577,0.142989 -0.112723,0.217394 -0.0044,0.0085 -0.0091,0.01642 -0.01312,0.02515 -0.03825,0.07752 -0.07576,0.157747 -0.112353,0.23901 -0.0026,0.0054 -0.0052,0.01081 -0.0076,0.01621 -0.03899,0.08667 -0.07687,0.174996 -0.113646,0.265196 -3.7e-4,8.31e-4 -0.06505,0.0019 -0.0656,0.0025 -0.03733,0.09165 -0.173518,0.184765 -0.173518,0.279953 l 0,4.16e-4 c -0.369582,1.333882 -0.72863,3.044983 -0.731033,4.911129 l 6.909515,-1.439254 c -0.306199,-3.576831 -1.698783,-6.280551 -3.391467,-6.280551 -0.06006,0 -0.111244,0.0035 -0.170192,0.01018 -0.0231,0.0025 -0.03677,0.0076 -0.05932,0.01102 z"
     id="path4293" /><g
     id="g4295"
     transform="matrix(0,0.20783451,-0.18479084,0,95.545998,10.770503)"><path
       inkscape:connector-curvature="0"
       style="opacity:0.2;fill:#5d5d5d;enable-background:new"
       d="m 317.942,418.001 0.183,0 c -0.002,-0.081 -0.013,-0.16 -0.013,-0.241 0,-0.04 -0.17,0.241 -0.17,0.241 z"
       id="path4297" /><path
       inkscape:connector-curvature="0"
       style="opacity:0.2;fill:#5d5d5d;enable-background:new"
       d="m 318.415,284.596 0.02,133.404 -0.31,0 c 0.267,10.236 17.467,18.173 37.31,18.2 l 0,-133.13 c -20,-0.027 -37.02,-8.12 -37.02,-18.474 z"
       id="path4299" /></g><path
     inkscape:connector-curvature="0"
     style="opacity:0.2;fill:#5d5d5d;enable-background:new"
     d="m 42.828681,76.869775 c -0.0364,0.0054 -0.07336,0.01039 -0.109581,0.0187 -0.02661,0.0058 -0.05285,0.01496 -0.07964,0.02224 -0.03142,0.0089 -0.06283,0.01621 -0.09387,0.0266 -0.02735,0.0094 -0.05451,0.02161 -0.08149,0.03242 -0.02994,0.01185 -0.05969,0.02203 -0.08925,0.03575 -0.02827,0.01289 -0.05618,0.02889 -0.08408,0.04302 -0.02753,0.01434 -0.05581,0.02743 -0.08353,0.04323 -0.02994,0.01725 -0.0595,0.03741 -0.08944,0.05632 -0.02495,0.016 -0.05026,0.03034 -0.07484,0.04759 -0.0316,0.02203 -0.06301,0.04739 -0.09443,0.07149 -0.02236,0.01684 -0.04472,0.03201 -0.06671,0.05009 -0.03363,0.02743 -0.06634,0.05778 -0.0996,0.08771 -0.01922,0.01683 -0.03862,0.03242 -0.05765,0.0505 -0.03382,0.03221 -0.06726,0.06713 -0.100711,0.101423 -0.01756,0.01808 -0.0353,0.03471 -0.05267,0.053 -0.03493,0.03783 -0.06948,0.07835 -0.103852,0.118881 -0.01515,0.01767 -0.03049,0.03346 -0.04527,0.05154 -0.03548,0.04281 -0.06985,0.08833 -0.104592,0.133638 -0.01349,0.01767 -0.02735,0.03429 -0.04084,0.05217 -0.03677,0.04988 -0.07262,0.102255 -0.108657,0.154836 -0.01053,0.01559 -0.02144,0.03034 -0.03197,0.04593 -0.03696,0.05612 -0.07336,0.114517 -0.109395,0.173542 -0.0089,0.01393 -0.01792,0.02723 -0.02661,0.04178 -0.03844,0.06422 -0.07632,0.130936 -0.113647,0.198897 -0.0053,0.01 -0.01109,0.01974 -0.01718,0.03014 -0.03807,0.07046 -0.07558,0.143198 -0.112354,0.21698 -0.0043,0.0085 -0.0091,0.01683 -0.01312,0.02556 -0.03844,0.07752 -0.07576,0.157538 -0.112352,0.238594 -0.003,0.0058 -0.0052,0.01102 -0.0078,0.01663 -0.03918,0.08625 -0.07706,0.174581 -0.113462,0.264782 -7.39e-4,9.97e-4 -0.0011,0.0019 -0.0015,0.0029 -0.03714,0.09124 -0.07355,0.184765 -0.109027,0.279953 l 0,0 c -0.49487,1.334298 -0.793307,3.044983 -0.795525,4.911545 l 6.877362,-1.439254 c -0.306384,-3.57704 -1.715045,-6.280967 -3.407359,-6.280967 -0.05987,0 -0.119375,0.0035 -0.178323,0.01018 -0.0231,0.0032 -0.04472,0.0083 -0.06708,0.01164 z"
     id="path4301" /><path
     inkscape:connector-curvature="0"
     style="opacity:0.2;fill:#5d5d5d;enable-background:new"
     d="m 77.990683,56.204582 0,-0.0037 -20.295763,0.175828 -39.391682,0 0,-0.170632 c 0,0 0.05196,-0.0015 0.04457,-0.0015 -0.598716,0 -1.133872,0.338978 -1.624308,0.934216 -0.0015,0.0019 0.01109,0.004 0.0102,0.0052 -0.04805,0.05819 -0.08815,0.118258 -0.134343,0.181439 -0.0015,0.0015 7.39e-4,0.0035 -1.85e-4,0.0052 -0.04657,0.06297 -0.09018,0.128027 -0.134898,0.195573 -0.0037,0.0054 -0.0059,0.01122 -0.0096,0.01663 -0.04235,0.06443 -0.08408,0.13052 -0.124919,0.199106 -0.0044,0.0081 -0.0089,0.01663 -0.01345,0.02473 -0.03969,0.0663 -0.07854,0.134469 -0.116604,0.204925 -0.0059,0.01102 -0.01183,0.02307 -0.01789,0.0345 -0.03644,0.06796 -0.07259,0.136963 -0.107549,0.20825 -0.0074,0.01455 -0.01367,0.02993 -0.0207,0.04406 -0.03363,0.06962 -0.06704,0.139665 -0.09942,0.211991 -0.008,0.0185 -0.01589,0.03762 -0.02388,0.05591 -0.03068,0.07004 -0.06135,0.140288 -0.09055,0.212614 -0.009,0.02203 -0.01752,0.04552 -0.02639,0.06775 -0.02809,0.07004 -0.05581,0.140497 -0.0826,0.212615 -0.0089,0.02473 -0.01722,0.0503 -0.02609,0.07482 -0.02609,0.0717 -0.05196,0.143406 -0.0765,0.217187 -0.0096,0.02889 -0.01848,0.05882 -0.02809,0.08812 -0.02306,0.07087 -0.04642,0.141951 -0.06822,0.214901 -0.01,0.03201 -0.01848,0.06526 -0.02809,0.09747 -0.02084,0.0717 -0.04199,0.142783 -0.06172,0.215732 -0.01035,0.0372 -0.01944,0.07544 -0.02897,0.113062 -0.01863,0.06983 -0.03696,0.139666 -0.05433,0.210953 -0.0098,0.04011 -0.01885,0.08147 -0.02772,0.121998 -0.01685,0.06983 -0.03341,0.139873 -0.04841,0.211368 -0.0098,0.04365 -0.01848,0.08875 -0.02713,0.133015 -0.01441,0.06942 -0.02905,0.138625 -0.0425,0.209289 -0.0087,0.04718 -0.01663,0.09519 -0.02535,0.143198 -0.0122,0.069 -0.02491,0.137794 -0.03681,0.207834 -0.008,0.04946 -0.01493,0.100384 -0.02269,0.15068 -0.01087,0.06942 -0.02181,0.13821 -0.03141,0.208666 -0.0074,0.05154 -0.01345,0.104125 -0.01974,0.156084 -0.0094,0.07004 -0.01863,0.139665 -0.02698,0.210744 -0.0067,0.05404 -0.01124,0.109113 -0.017,0.163773 -0.0074,0.07004 -0.01537,0.13925 -0.02181,0.209914 -0.0052,0.05612 -0.0094,0.113477 -0.01382,0.170008 -0.0059,0.07004 -0.01183,0.14008 -0.01663,0.210744 -0.0037,0.05778 -0.0067,0.116596 -0.01035,0.174582 -0.0037,0.07066 -0.0089,0.141119 -0.01183,0.212198 -0.003,0.05923 -0.0044,0.119921 -0.0059,0.179362 -0.003,0.07108 -0.0052,0.141742 -0.0074,0.21303 -0.0015,0.06069 -0.0015,0.08895 -0.0022,0.149849 -7.39e-4,0.06817 -0.0022,0.170839 -0.0022,0.170839 l 59.658802,0 c 0.0053,-4.364525 1.358951,-7.654129 3.391651,-7.654129 z"
     id="path4303" /><path
     inkscape:connector-curvature="0"
     style="opacity:0.2;fill:#5d5d5d;enable-background:new"
     d="m 77.886646,56.225989 c -0.03659,0.0056 -0.07318,0.01039 -0.109766,0.0187 -0.02643,0.0058 -0.05285,0.01496 -0.07946,0.02245 -0.03141,0.0087 -0.06283,0.016 -0.09387,0.0264 -0.02753,0.0094 -0.0547,0.02161 -0.08186,0.03263 -0.02975,0.01185 -0.05969,0.02224 -0.08925,0.03554 -0.02827,0.01289 -0.05599,0.02889 -0.08408,0.04344 -0.02753,0.01393 -0.05562,0.02702 -0.08334,0.04281 -0.03031,0.01746 -0.05969,0.03783 -0.08962,0.05632 -0.02495,0.016 -0.05008,0.03055 -0.07502,0.0478 -0.0316,0.02161 -0.0632,0.04718 -0.09461,0.07108 -0.02181,0.01684 -0.04453,0.03201 -0.06634,0.05009 -0.03363,0.02743 -0.06652,0.05778 -0.09979,0.08771 -0.01922,0.01704 -0.03844,0.03263 -0.05766,0.0505 -0.034,0.03221 -0.06745,0.06713 -0.100711,0.101422 -0.01774,0.01808 -0.03548,0.03471 -0.05267,0.05341 -0.03511,0.03741 -0.06967,0.07835 -0.104037,0.118466 -0.01515,0.01767 -0.03049,0.03388 -0.04527,0.05196 -0.0353,0.04261 -0.06985,0.08791 -0.104407,0.13343 -0.01367,0.01767 -0.02735,0.03429 -0.04102,0.05258 -0.03659,0.04946 -0.07262,0.102255 -0.108287,0.154837 -0.01053,0.01559 -0.02162,0.02993 -0.03215,0.04572 -0.03714,0.0557 -0.07318,0.114518 -0.109396,0.173335 -0.0089,0.01413 -0.01774,0.02743 -0.02643,0.04178 -0.03862,0.06464 -0.0765,0.130935 -0.113646,0.198897 -0.0055,0.01 -0.01146,0.01974 -0.01737,0.03014 -0.03807,0.07046 -0.07576,0.14299 -0.112722,0.217187 -0.0042,0.0087 -0.0087,0.01663 -0.01294,0.02535 -0.03844,0.07752 -0.07576,0.157539 -0.112537,0.239011 -0.0026,0.0054 -0.0052,0.0106 -0.0078,0.01621 -0.03881,0.08625 -0.07669,0.174996 -0.113647,0.26478 -3.69e-4,0.0011 -5.54e-4,0.0019 -9.61e-4,0.0029 -0.03733,0.09145 -0.07355,0.184765 -0.109026,0.279954 l 0,0 c -0.49487,1.334297 -0.793492,3.044983 -0.79534,4.911544 l 6.877213,-1.439047 c -0.306383,-3.576832 -1.715044,-6.280967 -3.407543,-6.280967 -0.05969,0 -0.11919,0.0037 -0.178508,0.0106 -0.02218,0.0025 -0.04398,0.0076 -0.06616,0.01102 z"
     id="path4305" /><g
     id="g4307"
     transform="matrix(0,0.24999952,-0.24999952,0,128.00012,1.2656996e-4)" /><g
     id="g4309"
     transform="matrix(0,0.24999952,-0.24999952,0,128.00012,1.2656996e-4)" /><g
     id="g4311"
     transform="matrix(0,0.24999952,-0.24999952,0,128.00012,1.2656996e-4)" /><g
     id="g4313"
     transform="matrix(0,0.24999952,-0.24999952,0,128.00012,1.2656996e-4)" /><g
     id="g4315"
     transform="matrix(0,0.24999952,-0.24999952,0,128.00012,1.2656996e-4)" /><g
     id="g4317"
     transform="matrix(0,0.24999952,-0.24999952,0,128.00012,1.2656996e-4)" /><g
     id="g4319"
     transform="matrix(0,0.24999952,-0.24999952,0,128.00012,1.2656996e-4)" /><g
     id="g4321"
     transform="matrix(0,0.24999952,-0.24999952,0,128.00012,1.2656996e-4)" /><g
     id="g4323"
     transform="matrix(0,0.24999952,-0.24999952,0,128.00012,1.2656996e-4)" /><g
     id="g4325"
     transform="matrix(0,0.24999952,-0.24999952,0,128.00012,1.2656996e-4)" /><g
     id="g4327"
     transform="matrix(0,0.24999952,-0.24999952,0,128.00012,1.2656996e-4)" /><g
     id="g4329"
     transform="matrix(0,0.24999952,-0.24999952,0,128.00012,1.2656996e-4)" /><g
     id="g4331"
     transform="matrix(0,0.24999952,-0.24999952,0,128.00012,1.2656996e-4)" /><g
     id="g4333"
     transform="matrix(0,0.24999952,-0.24999952,0,128.00012,1.2656996e-4)" /><g
     id="g4335"
     transform="matrix(0,0.24999952,-0.24999952,0,128.00012,1.2656996e-4)" /><g
     id="g4660"
     transform="matrix(0.056292,0.0150834,-0.0150834,0.056292,68.601498,16.21986)"><g
       id="g4618"><g
         id="g4620"><path
           id="path4622"
           d="m 400.388,175.787 c -1.707,-3.413 -4.267,-5.12 -7.68,-5.12 l -100.693,0 99.84,-157.867 c 1.707,-2.56 1.707,-5.973 0,-8.533 C 390.148,1.707 387.588,0 384.175,0 L 247.642,0 c -3.413,0 -5.973,1.707 -7.68,4.267 l -128,256 c -1.707,2.56 -1.707,5.973 0,8.533 1.707,2.56 5.12,4.267 7.68,4.267 l 87.893,0 -95.573,227.84 c -1.707,3.413 0,7.68 3.413,10.24 0.853,0.853 2.56,0.853 4.267,0.853 2.56,0 5.12,-0.853 6.827,-2.56 L 399.536,185.173 c 1.706,-2.56 2.559,-5.973 0.852,-9.386 z"
           inkscape:connector-curvature="0"
           sodipodi:nodetypes="ssccsssccsscccsccs"
           style="fill:#ffffff;fill-opacity:1" /></g></g><g
       id="g4624" /><g
       id="g4626" /><g
       id="g4628" /><g
       id="g4630" /><g
       id="g4632" /><g
       id="g4634" /><g
       id="g4636" /><g
       id="g4638" /><g
       id="g4640" /><g
       id="g4642" /><g
       id="g4644" /><g
       id="g4646" /><g
       id="g4648" /><g
       id="g4650" /><g
       id="g4652" /></g><g
     transform="matrix(0.056292,-0.0150834,-0.0150834,-0.056292,64.601498,110.58484)"
     id="g4680"><g
       id="g4682"><g
         id="g4684"><path
           style="fill:#ffffff;fill-opacity:1"
           sodipodi:nodetypes="ssccsssccsscccsccs"
           inkscape:connector-curvature="0"
           d="m 400.388,175.787 c -1.707,-3.413 -4.267,-5.12 -7.68,-5.12 l -100.693,0 99.84,-157.867 c 1.707,-2.56 1.707,-5.973 0,-8.533 C 390.148,1.707 387.588,0 384.175,0 L 247.642,0 c -3.413,0 -5.973,1.707 -7.68,4.267 l -128,256 c -1.707,2.56 -1.707,5.973 0,8.533 1.707,2.56 5.12,4.267 7.68,4.267 l 87.893,0 -95.573,227.84 c -1.707,3.413 0,7.68 3.413,10.24 0.853,0.853 2.56,0.853 4.267,0.853 2.56,0 5.12,-0.853 6.827,-2.56 L 399.536,185.173 c 1.706,-2.56 2.559,-5.973 0.852,-9.386 z"
           id="path4686" /></g></g><g
       id="g4688" /><g
       id="g4690" /><g
       id="g4692" /><g
       id="g4694" /><g
       id="g4696" /><g
       id="g4698" /><g
       id="g4700" /><g
       id="g4702" /><g
       id="g4704" /><g
       id="g4706" /><g
       id="g4708" /><g
       id="g4710" /><g
       id="g4712" /><g
       id="g4714" /><g
       id="g4716" /></g><g
     id="g4718"
     transform="matrix(0,-0.05827777,-0.05827777,0,117.56528,71.037982)"><g
       id="g4720"><g
         id="g4722"><path
           id="path4724"
           d="m 400.388,175.787 c -1.707,-3.413 -4.267,-5.12 -7.68,-5.12 l -100.693,0 99.84,-157.867 c 1.707,-2.56 1.707,-5.973 0,-8.533 C 390.148,1.707 387.588,0 384.175,0 L 247.642,0 c -3.413,0 -5.973,1.707 -7.68,4.267 l -128,256 c -1.707,2.56 -1.707,5.973 0,8.533 1.707,2.56 5.12,4.267 7.68,4.267 l 87.893,0 -95.573,227.84 c -1.707,3.413 0,7.68 3.413,10.24 0.853,0.853 2.56,0.853 4.267,0.853 2.56,0 5.12,-0.853 6.827,-2.56 L 399.536,185.173 c 1.706,-2.56 2.559,-5.973 0.852,-9.386 z"
           inkscape:connector-curvature="0"
           sodipodi:nodetypes="ssccsssccsscccsccs"
           style="fill:#ffffff;fill-opacity:1" /></g></g><g
       id="g4726" /><g
       id="g4728" /><g
       id="g4730" /><g
       id="g4732" /><g
       id="g4734" /><g
       id="g4736" /><g
       id="g4738" /><g
       id="g4740" /><g
       id="g4742" /><g
       id="g4744" /><g
       id="g4746" /><g
       id="g4748" /><g
       id="g4750" /><g
       id="g4752" /><g
       id="g4754" /></g><path
     style="opacity:0.2;fill:#000000;fill-opacity:1;fill-rule:evenodd;stroke:none;stroke-width:1px;stroke-linecap:butt;stroke-linejoin:miter;stroke-opacity:1"
     d="M 98.737778,29.540824 66.159535,38.270138 64.214991,18.647924 84.013982,10.869749 Z"
     id="path4773"
     inkscape:connector-curvature="0" /><path
     inkscape:connector-curvature="0"
     id="path4775"
     d="M 122.73778,51.540824 90.159539,60.270138 88.214989,40.647924 108.01398,32.869749 Z"
     style="opacity:0.2;fill:#000000;fill-opacity:1;fill-rule:evenodd;stroke:none;stroke-width:1px;stroke-linecap:butt;stroke-linejoin:miter;stroke-opacity:1" /><path
     style="opacity:0.2;fill:#000000;fill-opacity:1;fill-rule:evenodd;stroke:none;stroke-width:1px;stroke-linecap:butt;stroke-linejoin:miter;stroke-opacity:1"
     d="m 82.737779,91.540824 -32.57824,8.729316 -1.94455,-19.622216 19.79899,-7.778175 z"
     id="path4777"
     inkscape:connector-curvature="0" /></svg>